<svg xmlns="http://www.w3.org/2000/svg" viewBox="0 0 100 100" width="100" height="100"><rect width="100" height="100" rx="14" fill="#E6EEF0"/><g transform="translate(4 14) scale(.82)"><g stroke="#E0508F" stroke-width="3.5" stroke-linecap="round" stroke-linejoin="round" fill="#E0508F" fill-opacity=".22"><path d="M18 62 C18 36 34 30 48 34 C62 30 78 36 78 62 C78 80 62 88 48 88 C34 88 18 80 18 62Z"/></g><g stroke="#E0508F" stroke-width="3.5" stroke-linecap="round" stroke-linejoin="round" fill="none"><circle cx="48" cy="64" r="9"/></g><circle cx="48" cy="64" r="2.5" fill="#E0508F"/></g><g transform="translate(70.0 4.0) scale(0.5)" fill="none" stroke-linecap="round" stroke-linejoin="round"><path d="M20 6 C10 6 8 18 16 28 L30 52 M20 6 C30 6 32 18 24 28 L10 52" stroke="#10303A" stroke-opacity=".45" stroke-width="10"/><path d="M20 6 C10 6 8 18 16 28 L30 52" stroke="#F06EAA" stroke-width="6"/><path d="M20 6 C30 6 32 18 24 28 L10 52" stroke="#F06EAA" stroke-width="6"/></g></svg>