<svg xmlns="http://www.w3.org/2000/svg" viewBox="0 0 100 100" width="100" height="100"><rect width="100" height="100" rx="14" fill="#E6EEF0"/><g transform="translate(4 14) scale(.82)"><g stroke="#6F8F9B" stroke-width="3.5" stroke-linecap="round" stroke-linejoin="round" fill="#6F8F9B" fill-opacity=".22"><path d="M44 38 C30 34 14 52 14 76 C14 86 26 88 34 80 C42 72 44 58 44 38Z"/><path d="M56 38 C70 34 86 52 86 76 C86 86 74 88 66 80 C58 72 56 58 56 38Z"/></g><g stroke="#6F8F9B" stroke-width="3.5" stroke-linecap="round" stroke-linejoin="round" fill="none"><path d="M50 20 V42 M50 42 L42 54 M50 42 L58 54"/></g></g><g transform="translate(70.0 4.0) scale(0.5)" fill="none" stroke-linecap="round" stroke-linejoin="round"><path d="M20 6 C10 6 8 18 16 28 L30 52 M20 6 C30 6 32 18 24 28 L10 52" stroke="#10303A" stroke-opacity=".45" stroke-width="10"/><path d="M20 6 C10 6 8 18 16 28 L30 52" stroke="#F4F1E8" stroke-width="6"/><path d="M20 6 C30 6 32 18 24 28 L10 52" stroke="#F4F1E8" stroke-width="6"/></g></svg>