<svg xmlns="http://www.w3.org/2000/svg" viewBox="0 0 100 100" width="100" height="100"><rect width="100" height="100" rx="14" fill="#E6EEF0"/><g transform="translate(4 14) scale(.82)"><g stroke="#E07B10" stroke-width="3.5" stroke-linecap="round" stroke-linejoin="round" fill="#E07B10" fill-opacity=".22"><path d="M58 20 C78 24 82 48 74 64 C66 78 46 84 36 74 C30 66 40 60 46 56 C52 52 48 46 40 44 C30 40 36 22 58 20Z"/></g><g stroke="#E07B10" stroke-width="3.5" stroke-linecap="round" stroke-linejoin="round" fill="none"><path d="M44 58 C40 70 46 78 44 90"/></g></g><g transform="translate(63.0 4.0) scale(0.5)" fill="none" stroke-linecap="round" stroke-linejoin="round"><path d="M20 6 C10 6 8 18 16 28 L30 52 M20 6 C30 6 32 18 24 28 L10 52" stroke="#10303A" stroke-opacity=".45" stroke-width="10"/><path d="M20 6 C10 6 8 18 16 28 L30 52" stroke="#F28C28" stroke-width="6"/><path d="M20 6 C30 6 32 18 24 28 L10 52" stroke="#F28C28" stroke-width="6"/></g><g transform="translate(70.0 4.0) scale(0.5)" fill="none" stroke-linecap="round" stroke-linejoin="round"><path d="M20 6 C10 6 8 18 16 28 L30 52 M20 6 C30 6 32 18 24 28 L10 52" stroke="#10303A" stroke-opacity=".45" stroke-width="10"/><path d="M20 6 C10 6 8 18 16 28 L30 52" stroke="#F4C20D" stroke-width="6"/><path d="M20 6 C30 6 32 18 24 28 L10 52" stroke="#F4C20D" stroke-width="6"/></g><g transform="translate(77.0 4.0) scale(0.5)" fill="none" stroke-linecap="round" stroke-linejoin="round"><path d="M20 6 C10 6 8 18 16 28 L30 52 M20 6 C30 6 32 18 24 28 L10 52" stroke="#10303A" stroke-opacity=".45" stroke-width="10"/><path d="M20 6 C10 6 8 18 16 28 L30 52" stroke="#6FB7E9" stroke-width="6"/><path d="M20 6 C30 6 32 18 24 28 L10 52" stroke="#6FB7E9" stroke-width="6"/></g></svg>